<svg viewBox="0 0 1024 768" xmlns="http://www.w3.org/2000/svg">
  <defs>
    <linearGradient id="notionGradient" x1="0%" y1="0%" x2="100%" y2="100%">
      <stop offset="0%" style="stop-color:#ffffff"/>
      <stop offset="100%" style="stop-color:#f7f7f7"/>
    </linearGradient>
    <linearGradient id="wechatGradient" x1="0%" y1="0%" x2="100%" y2="100%">
      <stop offset="0%" style="stop-color:#2DC100"/>
      <stop offset="100%" style="stop-color:#1EA92E"/>
    </linearGradient>
    <pattern id="gridPattern" width="20" height="20" patternUnits="userSpaceOnUse">
      <path d="M 20 0 L 0 0 0 20" fill="none" stroke="#f0f0f0" stroke-width="1"/>
    </pattern>
  </defs>
  <rect width="1024" height="768" fill="#ffffff"/>
  <g id="notion-side" transform="translate(100, 184)">
    <rect x="0" y="0" width="360" height="400" fill="url(#notionGradient)" rx="8" ry="8" filter="drop-shadow(0 4px 6px rgba(0,0,0,0.1))"/>
    <rect x="20" y="20" width="320" height="40" fill="#f0f0f0" rx="4" ry="4"/>
    <g id="notion-content-blocks">
      <rect x="20" y="80" width="280" height="24" fill="#e0e0e0" rx="2" ry="2"/>
      <rect x="20" y="120" width="320" height="24" fill="#e0e0e0" rx="2" ry="2"/>
      <rect x="20" y="160" width="260" height="24" fill="#e0e0e0" rx="2" ry="2"/>
      <rect x="20" y="200" width="300" height="24" fill="#e0e0e0" rx="2" ry="2"/>
      <rect x="20" y="240" width="320" height="24" fill="#e0e0e0" rx="2" ry="2"/>
    </g>
    <rect x="0" y="0" width="360" height="400" fill="url(#gridPattern)" opacity="0.5"/>
  </g>
  <g id="wechat-side" transform="translate(564, 184)">
    <rect x="0" y="0" width="360" height="400" fill="#ffffff" rx="20" ry="20" stroke="#e6e6e6" stroke-width="2"/>
    <rect x="20" y="20" width="320" height="40" fill="url(#wechatGradient)" rx="4" ry="4" opacity="0.1"/>
    <g id="wechat-content-blocks">
      <rect x="20" y="80" width="280" height="24" fill="#f8f8f8" rx="2" ry="2"/>
      <rect x="20" y="120" width="320" height="24" fill="#f8f8f8" rx="2" ry="2"/>
      <rect x="20" y="160" width="260" height="24" fill="#f8f8f8" rx="2" ry="2"/>
      <rect x="20" y="200" width="300" height="24" fill="#f8f8f8" rx="2" ry="2"/>
      <rect x="20" y="240" width="320" height="24" fill="#f8f8f8" rx="2" ry="2"/>
    </g>
    <g id="wechat-accents">
      <circle cx="40" cy="92" r="4" fill="url(#wechatGradient)" opacity="0.6"/>
      <circle cx="40" cy="172" r="4" fill="url(#wechatGradient)" opacity="0.6"/>
      <circle cx="40" cy="252" r="4" fill="url(#wechatGradient)" opacity="0.6"/>
    </g>
  </g>
  <g id="connection-elements" transform="translate(460, 184)">
    <g id="connecting-shapes" opacity="0.1">
      <path d="M0 100 Q 52 100, 52 150" stroke="#2DC100" stroke-width="2" fill="none"/>
      <path d="M0 200 Q 52 200, 52 250" stroke="#2DC100" stroke-width="2" fill="none"/>
      <circle cx="52" cy="150" r="4" fill="#2DC100"/>
      <circle cx="52" cy="250" r="4" fill="#2DC100"/>
    </g>
  </g>
</svg>