<svg xmlns="http://www.w3.org/2000/svg" viewBox="0 0 1024 768">
  <defs>
    <filter height="140%" width="140%" y="-20%" x="-20%" id="dropShadow">
      <feGaussianBlur stdDeviation="4" in="SourceAlpha"/>
      <feOffset dy="2" dx="2"/>
      <feComponentTransfer>
        <feFuncA slope="0.2" type="linear"/>
      </feComponentTransfer>
      <feMerge>
        <feMergeNode/>
        <feMergeNode in="SourceGraphic"/>
      </feMerge>
    </filter>
    <pattern patternUnits="userSpaceOnUse" height="40" width="40" y="0" x="0" id="notionGrid">
      <path id="svg_1" stroke-width="0.5" stroke="#E6E6E6" fill="none" d="m40,0l-40,0l0,40"/>
    </pattern>
  </defs>
  <g>
    <title>Layer 1</title>
    <rect id="svg_2" fill="white" height="768" width="1024"/>
    <rect id="svg_3" opacity="0.3" fill="url(#notionGrid)" height="768" width="1024"/>
    <g id="browser-frame">
      <rect id="svg_4" stroke="#E0E0E0" fill="#FFFFFF" rx="8" height="500" width="400" y="100" x="80"/>
      <rect id="svg_5" fill="#F5F5F5" rx="8" height="40" width="400" y="100" x="80"/>
      <circle id="svg_6" fill="#FF6B6B" r="6" cy="120" cx="105"/>
      <circle id="svg_7" fill="#FFD93D" r="6" cy="120" cx="125"/>
      <circle id="svg_8" fill="#6BCB77" r="6" cy="120" cx="145"/>
    </g>
    <g id="notion-content">
      <rect id="svg_9" fill="#F7F6F3" rx="4" height="40" width="360" y="160" x="100"/>
      <rect id="svg_10" fill="#EBEAE7" rx="4" height="20" width="360" y="220" x="100"/>
      <rect id="svg_11" fill="#F7F6F3" rx="4" height="60" width="360" y="260" x="100"/>
      <rect id="svg_12" fill="#F7F6F3" rx="4" height="40" width="360" y="340" x="100"/>
      <rect id="svg_13" fill="#F7F6F3" rx="4" height="80" width="360" y="400" x="100"/>
    </g>
    <g filter="url(#dropShadow)" id="wechat-preview">
      <rect id="svg_16" stroke="#E0E0E0" fill="white" rx="20" height="500" width="400" y="100" x="544"/>
      <rect id="svg_17" fill="#F8F8F8" rx="8" height="200" width="360" y="120" x="564"/>
      <rect id="svg_18" fill="#F5F5F5" rx="4" height="20" width="360" y="340" x="564"/>
      <rect id="svg_19" fill="#F5F5F5" rx="4" height="20" width="360" y="380" x="564"/>
      <rect id="svg_20" fill="#F5F5F5" rx="4" height="20" width="360" y="420" x="564"/>
      <rect id="svg_21" fill="#F5F5F5" rx="4" height="20" width="280" y="460" x="564"/>
    </g>
    <g id="extension-hint">
      <rect id="svg_22" opacity="0.8" fill="#2196F3" rx="4" height="24" width="24" y="110" x="440"/>
      <path id="svg_23" stroke-linecap="round" stroke-width="2" stroke="white" d="m444,122l16,0m-8,-8l0,16"/>
    </g>
    <g stroke="null" filter="url(#dropShadow)" id="transform-button">
      <circle stroke="null" id="svg_14" fill="#2196F3" r="53" cy="363" cx="509"/>
      <text transform="matrix(1.01209 0 0 0.93165 -4.63925 104.671)" stroke="null" id="svg_15" dominant-baseline="middle" text-anchor="middle" fill="white" font-size="24" font-family="YOUSHEhaoshenti" y="282.05348" x="507.00944">一键生成</text>
    </g>
  </g>
</svg>
